<?xml version="1.0" encoding="iso-8859-1"?>
<!-- Generator: Adobe Illustrator 19.0.0, SVG Export Plug-In . SVG Version: 6.00 Build 0)  -->
<svg version="1.1" id="Layer_1" xmlns="http://www.w3.org/2000/svg" xmlns:xlink="http://www.w3.org/1999/xlink" x="0px" y="0px"
	 viewBox="0 0 512.001 512.001" style="enable-background:new 0 0 512.001 512.001;" xml:space="preserve">
<path style="fill:#39B7B6;" d="M364.848,312.731h-58.316c-0.409-1.081-0.857-2.145-1.333-3.191l40.381-40.381
	c-7.44-10.145-16.557-18.985-26.943-26.108l-39.963,39.963c-1.048-0.475-2.11-0.924-3.192-1.333v-56.324
	c-6.327-1.124-12.837-1.713-19.482-1.713c-6.138,0-12.159,0.509-18.029,1.471v56.566c-1.377,0.52-2.728,1.092-4.048,1.72
	l-41.28-39.852c-10.329,7.204-19.381,16.114-26.743,26.322l41.97,40.517c-0.335,0.772-0.65,1.551-0.947,2.341h-59.768
	c-1.428,7.096-2.182,14.432-2.182,21.942c0,5.284,0.38,10.481,1.097,15.57h60.853c0.409,1.083,0.857,2.145,1.334,3.192
	l-42.199,42.199c-0.577,0.577-1.092,1.191-1.578,1.819c7.055,10.253,15.785,19.267,25.794,26.643
	c0.804-0.581,1.584-1.213,2.308-1.938l42.199-42.199c1.048,0.477,2.11,0.924,3.191,1.333v62.939
	c5.87,0.963,11.891,1.471,18.029,1.471c6.645,0,13.156-0.588,19.482-1.713V381.29c1.083-0.409,2.145-0.856,3.191-1.333
	l42.199,42.199c0.506,0.506,1.037,0.969,1.583,1.405c10.015-7.507,18.724-16.665,25.723-27.065
	c-0.257-0.289-0.504-0.586-0.781-0.863l-42.199-42.201c0.477-1.048,0.924-2.11,1.333-3.191h59.401
	c0.718-5.089,1.097-10.286,1.097-15.57C367.03,327.164,366.277,319.827,364.848,312.731z"/>
<path style="fill:#66CBC4;" d="M256.001,223.644c-6.138,0-12.159,0.509-18.029,1.471v56.566c-1.377,0.52-2.728,1.092-4.048,1.72
	l-41.28-39.852c-10.329,7.204-19.381,16.114-26.743,26.322l41.97,40.517c-0.335,0.772-0.65,1.551-0.947,2.341h-59.768
	c-1.428,7.096-2.182,14.432-2.182,21.942c0,5.284,0.38,10.481,1.097,15.57h60.853c0.409,1.083,0.857,2.145,1.334,3.192
	l-42.199,42.199c-0.577,0.577-1.092,1.191-1.578,1.819c7.055,10.253,15.785,19.267,25.794,26.643
	c0.804-0.581,1.584-1.213,2.308-1.938l42.199-42.199c1.048,0.476,2.11,0.924,3.191,1.333v62.939
	c5.87,0.963,11.891,1.471,18.029,1.471V223.644H256.001z"/>
<path style="fill:#F79D1E;" d="M256.727,315.772c-8.666,0-15.716,7.049-15.716,15.715s7.051,15.715,15.716,15.715
	c8.666,0,15.715-7.049,15.715-15.715C272.442,322.821,265.392,315.772,256.727,315.772z"/>
<path style="fill:#FBB03B;" d="M256.727,315.772c-8.666,0-15.716,7.049-15.716,15.715s7.051,15.715,15.716,15.715V315.772z"/>
<path style="fill:#CFCDD6;" d="M256.003,497.439c-89.495,0-162.305-72.807-162.305-162.298c0-89.493,72.81-162.302,162.305-162.302
	c89.493,0,162.3,72.809,162.3,162.302C418.303,424.633,345.496,497.439,256.003,497.439z M256.003,229.163
	c-58.439,0-105.982,47.542-105.982,105.979c0,58.435,47.543,105.975,105.982,105.975c58.435,0,105.977-47.54,105.977-105.975
	C361.98,276.705,314.439,229.163,256.003,229.163z"/>
<path style="fill:#DEE1E7;" d="M256.003,229.163V172.84c-89.495,0-162.305,72.809-162.305,162.302
	c0,89.492,72.81,162.298,162.305,162.298v-56.323c-58.439,0-105.982-47.54-105.982-105.975
	C150.021,276.705,197.564,229.163,256.003,229.163z"/>
<rect x="239.103" y="60.266" style="fill:#F79D1E;" width="33.794" height="113.975"/>
<rect x="239.103" y="60.266" style="fill:#FBB03B;" width="16.897" height="113.975"/>
<path style="fill:#0E4151;" d="M256.001,157.347c-97.778,0-177.326,79.548-177.326,177.326c0,97.779,79.548,177.327,177.326,177.327
	s177.326-79.548,177.326-177.327C433.327,236.896,353.779,157.347,256.001,157.347z M256.001,460.837
	c-69.567,0-126.164-56.597-126.164-126.164S186.434,208.51,256.001,208.51s126.164,56.597,126.164,126.164
	S325.567,460.837,256.001,460.837z"/>
<path style="fill:#144F66;" d="M256.001,208.51v-51.163c-97.778,0-177.326,79.548-177.326,177.326
	c0,97.779,79.548,177.327,177.326,177.327v-51.163c-69.567,0-126.164-56.597-126.164-126.164
	C129.837,265.107,186.434,208.51,256.001,208.51z"/>
<path style="fill:#BC2A46;" d="M310.914,0H132.591c-4.666,0-8.448,3.782-8.448,8.448c0,41.927,34.109,76.036,76.036,76.036h150.945
	c4.666,0,8.448-3.782,8.448-8.448V48.659C359.572,21.829,337.744,0,310.914,0z"/>
<path style="fill:#D62D46;" d="M256.003,0H132.591c-4.666,0-8.448,3.782-8.448,8.448c0,41.927,34.109,76.036,76.036,76.036h55.821
	L256.003,0z"/>
<g>
</g>
<g>
</g>
<g>
</g>
<g>
</g>
<g>
</g>
<g>
</g>
<g>
</g>
<g>
</g>
<g>
</g>
<g>
</g>
<g>
</g>
<g>
</g>
<g>
</g>
<g>
</g>
<g>
</g>
</svg>
