<svg id="Layer_1" enable-background="new 0 0 496.202 496.202" height="512" viewBox="0 0 496.202 496.202" width="512" xmlns="http://www.w3.org/2000/svg"><path d="m370.289 134.101h-267.89c-7.43 0-13.87 5.15-15.54 12.42l-9.149 40c-2.29 10.02 5.29 19.58 15.54 19.58h319.908c-44.347-74.735-41.326-69.748-42.869-72z" fill="#ade4f9"/><path d="m393.467 172.911-14.05 33.19h-50l30.48-72h10.391c1.519 2.215.584.739 23.179 38.81z" fill="#d6f7ff"/><path d="m496.159 291.101h-31.969c-14.199 0-21.26-17.305-11.28-27.32 2.89-2.89 6.87-4.68 11.28-4.68h29.49c3.055 11.261 2.479 19.097 2.479 32z" fill="#fee8b4"/><g fill="#d6f7ff"><path d="m163.902 134.101-30.49 72h-30l30.49-72z"/><path d="m243.902 134.101-30.49 72h-30l30.49-72z"/><path d="m264.902 134.101-30.49 72h-10l30.49-72z"/><path d="m346.057 134.101-30.49 72h-11.155l30.49-72z"/></g><path d="m464.19 291.101c-14.199 0-21.26-17.305-11.28-27.32 2.89-2.89 6.87-4.68 11.28-4.68h29.49c-8.29-30.61-36.378-53-69.518-53h-122v-72h68.127c-13.87-20.58-37.249-33-62.129-33h-226.23c-21.28 0-40.7 12.17-50.06 31.36-36.009 73.882-31.71 132.907-31.71 181.03 0 13.31 10.75 24.1 24 24.1l40.009 1.01c.26-30.66 25.201-55.5 55.991-55.5 30.92 0 55.999 25.07 55.999 56h120c0-30.92 25.061-56 56.001-56 30.92 0 55.999 25.07 55.999 56h64.001c13.25 0 23.999-10.79 23.999-24.1v-23.9zm-304.028-85h-66.912c-10.25 0-17.83-9.56-15.54-19.58l9.149-40c1.67-7.27 8.11-12.42 15.54-12.42h57.763zm16 0v-72h110v72z" fill="#fa8f68"/><path d="m75.118 305.831c-6.8 9.18-10.849 20.51-10.949 32.77l-40.009-1.01c-13.25 0-24-10.79-24-24.1 0-45.438-.225-51.294.738-64.98l4.3 6.32c16.92 24.87 41.769 42.69 69.92 51z" fill="#e7603f"/><path d="m496.159 311.101v3.9c0 13.31-10.749 24.1-23.999 24.1h-64.001c0-10.2-2.731-19.76-7.501-28z" fill="#e7603f"/><path d="m168.657 311.101h135c-4.77 8.24-7.499 17.8-7.499 28h-120c.001-10.2-2.73-19.76-7.501-28z" fill="#e7603f"/><path d="m370.289 134.101h-267.89c-7.43 0-13.87 5.15-15.54 12.42l-7.591 33.17c-21.088-5.865-39.393-19.009-51.52-38.42 1.32-2.96 2.702-5.89 4.122-8.81 9.205-18.918 28.517-31.36 50.06-31.36h226.23c24.88 0 48.259 12.42 62.129 33z" fill="#fcbca4"/><path d="m352.16 283.101c30.93 0 55.999 25.07 55.999 56s-25.071 56-56.001 56-55.999-25.07-55.999-56 25.071-56 56.001-56zm7.997 56c0-4.42-3.58-8-8-8s-8 3.58-8 8 3.58 8 8 8 8-3.58 8-8z" fill="#414754"/><path d="m120.16 283.101c30.93 0 55.999 25.07 55.999 56s-25.071 56-56.001 56c-32.405 0-56.967-27.402-55.989-56.5 1.032-30.684 25.231-55.5 55.991-55.5zm7.997 56c0-4.42-3.58-8-8-8s-8 3.58-8 8 3.58 8 8 8 8-3.58 8-8z" fill="#414754"/><path d="m248.157 254.101h-16c-4.418 0-8-3.582-8-8s3.582-8 8-8h16c4.418 0 8 3.582 8 8s-3.581 8-8 8z" fill="#fff"/><path d="m120.157 355.101c-8.822 0-16-7.178-16-16s7.178-16 16-16 16 7.178 16 16-7.177 16-16 16zm0-16.011v.011z" fill="#292d31"/><path d="m352.157 355.101c-8.822 0-16-7.178-16-16s7.178-16 16-16 16 7.178 16 16-7.177 16-16 16zm0-16.011v.011z" fill="#292d31"/><path d="m40.162 246.101c0 4.42-3.59 8-8 8 0 0-31.43-.01-31.6-.02.308-5.86.713-10.988 1.22-15.98h30.38c4.41 0 8 3.58 8 8z" fill="#e05a7f"/><path d="m32.162 278.101c0 4.42-3.59 8-8 8h-24v-16h24c4.41 0 8 3.58 8 8z" fill="#fff"/></svg>