<?xml version="1.0" encoding="iso-8859-1"?>
<!-- Generator: Adobe Illustrator 19.0.0, SVG Export Plug-In . SVG Version: 6.00 Build 0)  -->
<svg version="1.1" id="Capa_1" xmlns="http://www.w3.org/2000/svg" xmlns:xlink="http://www.w3.org/1999/xlink" x="0px" y="0px"
	 viewBox="0 0 512 512" style="enable-background:new 0 0 512 512;" xml:space="preserve">
<path style="fill:#85828C;" d="M358.4,132.266l-7.124-21.373c-0.842-2.524-3.203-4.227-5.864-4.227H108.581
	c-3.414,0-6.181,2.767-6.181,6.181v26.741h256V132.266z"/>
<path style="fill:#57555C;" d="M351.275,110.893c-0.842-2.524-3.204-4.227-5.864-4.227h-20.604c2.661,0,5.023,1.703,5.864,4.227
	l7.125,21.373v7.323H358.4v-7.323L351.275,110.893z"/>
<path style="fill:#4DBBEB;" d="M486.762,371.198l8.173-34.133v-85.333l-32.853-114.983c-0.758-2.654-3.183-4.483-5.943-4.483H17.067
	C7.642,132.266,0,139.907,0,149.333v215.683c0,3.414,2.767,6.181,6.181,6.181h480.581V371.198z"/>
<path style="fill:#38A1D9;" d="M462.082,136.748c-0.758-2.654-3.183-4.483-5.943-4.483h-20.537c2.76,0,5.185,1.83,5.943,4.483
	l32.853,114.984v85.333l-8.173,34.133h20.537l8.173-34.133v-85.333L462.082,136.748z"/>
<path style="fill:#57555C;" d="M484.048,371.198h21.771c3.414,0,6.181-2.767,6.181-6.181v-21.77c0-3.414-2.767-6.181-6.181-6.181
	h-21.772c-3.414,0-6.181,2.767-6.181,6.181v21.77C477.867,368.43,480.634,371.198,484.048,371.198z"/>
<path style="fill:#FEB756;" d="M494.934,285.864h-25.558c-4.219,0-7.198,4.133-5.864,8.135l4.413,13.24
	c0.842,2.524,3.204,4.227,5.864,4.227h21.146L494.934,285.864z"/>
<path style="fill:#FD3A4E;" d="M0.003,302.93h27.951c3.414,0,6.181,2.767,6.181,6.181v21.771c0,3.414-2.767,6.181-6.181,6.181H0.003
	V302.93z"/>
<path style="fill:#38A1D9;" d="M298.667,371.199V164.048c0-3.414-2.767-6.181-6.181-6.181h-72.969c-3.414,0-6.181,2.767-6.181,6.181
	v207.151H298.667z"/>
<g>
	<path style="fill:#C0E3F0;" d="M181.553,234.665h-72.972c-3.414,0-6.181-2.767-6.181-6.181v-64.436
		c0-3.414,2.767-6.181,6.181-6.181h72.972c3.414,0,6.181,2.767,6.181,6.181v64.436C187.734,231.898,184.967,234.665,181.553,234.665
		z"/>
	<path style="fill:#C0E3F0;" d="M40.314,234.665h30.305c3.414,0,6.181-2.767,6.181-6.181v-64.436c0-3.414-2.767-6.181-6.181-6.181
		H40.314c-3.414,0-6.181,2.767-6.181,6.181v64.436C34.133,231.898,36.9,234.665,40.314,234.665z"/>
	<path style="fill:#C0E3F0;" d="M468.115,157.867h-34.408h-24.106h-79.153c-3.414,0-6.181,2.767-6.181,6.181v64.436
		c0,3.414,2.767,6.181,6.181,6.181h78.151c0.664,0,1.325,0.107,1.954,0.317l49.297,16.432c0.63,0.21,1.29,0.317,1.954,0.317h33.132
		L468.115,157.867z"/>
</g>
<path style="fill:#FEB756;" d="M426.666,261.071h-17.064c-4.268,0-7.726,3.459-7.726,7.726c0,4.267,3.458,7.726,7.726,7.726h17.064
	c4.268,0,7.726-3.459,7.726-7.726C434.392,264.53,430.933,261.071,426.666,261.071z"/>
<path style="fill:#85828C;" d="M401.875,157.867v76.798h6.723c0.664,0,1.324,0.107,1.954,0.317l6.776,2.258v-79.374h-7.726h-7.726
	V157.867z"/>
<path style="fill:#C0E3F0;" d="M292.487,234.665h-72.97c-3.414,0-6.181-2.767-6.181-6.181v-64.436c0-3.414,2.767-6.181,6.181-6.181
	h72.97c3.414,0,6.181,2.767,6.181,6.181v64.436C298.668,231.898,295.901,234.665,292.487,234.665z"/>
<circle style="fill:#57555C;" cx="119.47" cy="354.134" r="51.199"/>
<circle style="fill:#85828C;" cx="119.47" cy="354.134" r="25.599"/>
<path style="fill:#57555C;" d="M119.468,342.136c-4.268,0-7.726,3.459-7.726,7.726v8.534c0,4.267,3.458,7.726,7.726,7.726
	c4.268,0,7.726-3.459,7.726-7.726v-8.534C127.194,345.595,123.736,342.136,119.468,342.136z"/>
<path style="fill:#4B494F;" d="M119.467,302.934c-3.528,0-6.974,0.357-10.302,1.037c23.339,4.768,40.897,25.415,40.897,50.163
	s-17.558,45.394-40.897,50.163c3.327,0.68,6.773,1.037,10.302,1.037c28.276,0,51.199-22.923,51.199-51.199
	S147.743,302.934,119.467,302.934z"/>
<circle style="fill:#57555C;" cx="392.53" cy="354.134" r="51.199"/>
<circle style="fill:#85828C;" cx="392.53" cy="354.134" r="25.599"/>
<path style="fill:#57555C;" d="M392.534,342.136c-4.268,0-7.726,3.459-7.726,7.726v8.534c0,4.267,3.458,7.726,7.726,7.726
	c4.268,0,7.726-3.459,7.726-7.726v-8.534C400.26,345.595,396.801,342.136,392.534,342.136z"/>
<g>
	<path style="fill:#4B494F;" d="M392.533,302.934c-3.528,0-6.974,0.357-10.302,1.037c23.339,4.768,40.897,25.415,40.897,50.163
		s-17.558,45.394-40.897,50.163c3.328,0.68,6.773,1.037,10.302,1.037c28.276,0,51.199-22.923,51.199-51.199
		S420.809,302.934,392.533,302.934z"/>
	<path style="fill:#4B494F;" d="M505.819,337.065h-20.604c3.414,0,6.181,2.767,6.181,6.181v21.77c0,3.414-2.767,6.181-6.181,6.181
		h20.604c3.414,0,6.181-2.767,6.181-6.181v-21.77C512,339.833,509.233,337.065,505.819,337.065z"/>
</g>
<path style="fill:#DE0B2B;" d="M27.954,302.931H7.35c3.414,0,6.181,2.767,6.181,6.181v21.77c0,3.414-2.767,6.181-6.181,6.181h20.604
	c3.414,0,6.181-2.767,6.181-6.181v-21.77C34.135,305.698,31.368,302.931,27.954,302.931z"/>
<g>
	<path style="fill:#A3CFE3;" d="M70.568,157.867H49.965c3.414,0,6.181,2.767,6.181,6.181v64.436c0,3.414-2.767,6.181-6.181,6.181
		h20.604c3.414,0,6.181-2.767,6.181-6.181v-64.436C76.75,160.634,73.981,157.867,70.568,157.867z"/>
	<path style="fill:#A3CFE3;" d="M181.553,157.867h-20.604c3.414,0,6.181,2.767,6.181,6.181v64.436c0,3.414-2.767,6.181-6.181,6.181
		h20.604c3.414,0,6.181-2.767,6.181-6.181v-64.436C187.734,160.634,184.967,157.867,181.553,157.867z"/>
	<path style="fill:#A3CFE3;" d="M292.486,157.867h-20.604c3.414,0,6.181,2.767,6.181,6.181v64.436c0,3.414-2.767,6.181-6.181,6.181
		h20.604c3.414,0,6.181-2.767,6.181-6.181v-64.436C298.667,160.634,295.9,157.867,292.486,157.867z"/>
	<path style="fill:#A3CFE3;" d="M375.09,157.867c3.414,0,6.181,2.767,6.181,6.181v64.436c0,3.414-2.767,6.181-6.181,6.181h26.785
		v-76.798L375.09,157.867L375.09,157.867z"/>
	<polygon style="fill:#A3CFE3;" points="447.579,157.867 474.398,251.732 474.398,251.733 494.935,251.733 468.115,157.867 	"/>
</g>
<rect x="474.398" y="285.864" style="fill:#FA8043;" width="20.536" height="25.602"/>
<g>
</g>
<g>
</g>
<g>
</g>
<g>
</g>
<g>
</g>
<g>
</g>
<g>
</g>
<g>
</g>
<g>
</g>
<g>
</g>
<g>
</g>
<g>
</g>
<g>
</g>
<g>
</g>
<g>
</g>
</svg>
