<svg id="Capa_1" enable-background="new 0 0 497 497" height="512" viewBox="0 0 497 497" width="512" xmlns="http://www.w3.org/2000/svg"><g><path d="m497 301v37.5c0 4.142-3.358 7.5-7.5 7.5h-22.5l-30-75z" fill="#aa897b"/><path d="m392 271h75v75h-75z" fill="#bba399"/><path d="m497 136c0-16.57-13.43-30-30-30h-30v165l30 30h30v-30l-25-67.5z" fill="#d12035"/><path d="m497 136v30l-60 30 30-60z" fill="#ffab37"/><path d="m437 106h-407c-16.57 0-30 13.43-30 30v165l150 45h197l45-45h75v-165c0-16.57-13.43-30-30-30z" fill="#ff2942"/><path d="m105 346h-97.5c-4.142 0-7.5-3.358-7.5-7.5v-37.5h105z" fill="#bba399"/><path d="m30 136v105h422l-60-105z" fill="#7a5a5f"/><path d="m497 136v135h-30l-60-67.5 60-67.5z" fill="#3c3366"/><path d="m392 136v105c0 16.569 13.431 30 30 30h45v-135z" fill="#5b4763"/><circle cx="105" cy="346" fill="#3c3366" r="45"/><circle cx="392" cy="346" fill="#3c3366" r="45"/><g fill="#fff"><circle cx="105" cy="346" r="15"/><circle cx="392" cy="346" r="15"/></g></g></svg>