<svg xmlns="http://www.w3.org/2000/svg" width="39.41" height="52" viewBox="0 0 39.41 52"><defs><style>.a{fill:#fff;}</style></defs><path class="a" d="M52,9.853V3.284A3.267,3.267,0,0,0,48.749,0H3.25A3.267,3.267,0,0,0,0,3.284V9.853A9.8,9.8,0,0,1,9.75,19.7,9.8,9.8,0,0,1,0,29.558v6.568A3.267,3.267,0,0,0,3.25,39.41h45.5A3.267,3.267,0,0,0,52,36.126V29.558a9.853,9.853,0,0,1,0-19.7ZM22.471,36.126h-3.25V29.558h3.25Zm0-13.137h-3.25V16.421h3.25Zm0-13.137h-3.25V3.284h3.25Z" transform="translate(0 52) rotate(-90)"/></svg>