<?xml version="1.0"?>
<svg xmlns="http://www.w3.org/2000/svg" xmlns:xlink="http://www.w3.org/1999/xlink" version="1.1" id="Capa_1" x="0px" y="0px" viewBox="0 0 368 368" style="enable-background:new 0 0 368 368;" xml:space="preserve" width="512px" height="512px"><g><g>
	<g>
		<g>
			<path d="M312,0c-4.416,0-8,3.584-8,8v72h-32V8c0-4.416-3.584-8-8-8c-4.416,0-8,3.584-8,8v72h-32V8c0-4.416-3.584-8-8-8     c-4.416,0-8,3.584-8,8v80v32c0,18.352,9.16,35.448,24,45.776V336c0,17.648,14.352,32,32,32s32-14.352,32-32V165.776     c14.864-10.376,24-27.448,24-45.776V88V8C320,3.584,316.416,0,312,0z M280,336c0,8.824-7.176,16-16,16c-8.824,0-16-7.176-16-16     V173.672c0.208,0.064,0.432,0.08,0.648,0.144c1.88,0.536,3.792,0.92,5.728,1.256c0.584,0.104,1.144,0.264,1.728,0.344     c2.608,0.368,5.24,0.584,7.896,0.584c2.664,0,5.296-0.216,7.896-0.584c0.56-0.08,1.096-0.24,1.656-0.328     c1.968-0.336,3.92-0.728,5.824-1.272c0.208-0.056,0.424-0.072,0.624-0.136V336z M304,120c0,14.24-7.664,27.496-20.072,34.632     c-9.04,5.344-20.16,6.68-30.24,4.008c-3.376-0.896-6.648-2.248-9.704-4.056C231.664,147.496,224,134.24,224,120V96h80V120z" data-original="#000000" class="active-path" data-old_color="#000000" fill="#E81667"/>
			<path d="M112,0C76.712,0,48,39.48,48,88c0,31.944,12.224,60.52,32,76.128V336c0,17.648,14.352,32,32,32s32-14.352,32-32V164.128     c19.776-15.616,32-44.184,32-76.128C176,39.48,147.288,0,112,0z M128,336c0,8.824-7.176,16-16,16c-8.824,0-16-7.176-16-16     V173.296c0.2,0.072,0.416,0.088,0.616,0.16c1.784,0.6,3.608,1.008,5.44,1.392c0.704,0.144,1.384,0.376,2.096,0.496     C106.736,175.76,109.344,176,112,176s5.272-0.24,7.848-0.664c0.704-0.112,1.376-0.344,2.08-0.488     c1.832-0.384,3.664-0.8,5.456-1.392c0.2-0.064,0.416-0.088,0.616-0.16V336z M131.512,153.696c-0.008,0-0.008,0.008-0.016,0.008     c-9.192,6.264-19.632,7.832-29.456,4.696c-1.64-0.52-3.256-1.176-4.848-1.96c-1.592-0.784-3.16-1.696-4.688-2.736     c-0.008,0-0.008-0.008-0.016-0.008C75.184,141.968,64,116.176,64,88c0-39.696,21.528-72,48-72s48,32.304,48,72     C160,116.176,148.816,141.968,131.512,153.696z" data-original="#000000" class="active-path" data-old_color="#000000" fill="#E81667"/>
		</g>
	</g>
</g></g> </svg>
