<?xml version="1.0"?>
<svg xmlns="http://www.w3.org/2000/svg" xmlns:xlink="http://www.w3.org/1999/xlink" version="1.1" id="Layer_1" x="0px" y="0px" viewBox="0 0 511.997 511.997" style="enable-background:new 0 0 511.997 511.997;" xml:space="preserve" width="512px" height="512px" class=""><g><g>
	<g>
		<g>
			<path d="M506.975,123.557l-44.599-66.013l6.89-26.849c0.917-3.579,0.296-7.379-1.716-10.48c-2.012-3.101-5.229-5.217-8.873-5.836     c-35.529-6.042-65.876-0.295-90.194,17.149c-45.562,32.685-56.232,97.584-60.249,122.698h-132.66     c-8.044,0-16.219,1.225-24.245,3.618c-6.823-21.988-27.141-37.984-51.084-37.984H83.723c-29.881,0-53.749,24.385-53.749,54.267     v120.942c0,5.08,2.689,9.71,7.266,11.911c1.823,0.878,3.669,1.307,5.616,1.307c2.945,0,5.809-0.983,8.196-2.891l38.289-34.845     c9.563,47.531,24.129,93.798,37.353,130.484c-24.925-9.098-45.704-20.974-59.895-34.441     c-13.333-12.643-34.123-14.245-49.432-3.813c-9.993,6.814-16.278,17.638-17.241,29.698c-0.953,11.925,3.46,23.461,12.102,31.643     c22.13,20.982,51.17,38.174,86.313,51.1c44.007,16.173,95.407,24.722,148.645,24.722c53.229,0,104.625-8.549,148.634-24.722     c35.13-12.915,64.168-30.105,86.305-51.092c8.65-8.188,13.063-19.725,12.11-31.65c-0.964-12.06-7.247-22.884-17.237-29.696     c-6.63-4.522-14.38-6.912-22.412-6.912c-10.12,0-19.713,3.807-27.02,10.725c-14.052,13.327-34.546,25.107-59.116,34.169     c20.141-50.172,40.561-101.968,40.561-152.857c0-57.988,13.35-71.85,19.089-75.12c8.195-4.667,19.779,0.782,25.969,4.453     c10.883,6.44,24.638,5.171,34.229-3.166l13.597-11.839C513.086,152.505,515.275,135.882,506.975,123.557z M196.517,180.66     h111.029v2.938c0,27.332-23.261,49.933-50.591,49.933H246.3c-27.332,0-49.783-22.602-49.783-49.933V180.66z M96.849,199.005     c-9.015,14.332-12.871,29.893-11.739,45.365l-28.7,23.224v-93.468h-0.001c0-15.306,12.008-27.831,27.313-27.831h16.522     c13.177,0,23.878,9.206,26.487,21.792c0.015,0.071,0.049,0.522,0.09,1.088C114.66,176.938,104.212,187.298,96.849,199.005z      M445.751,385.783c2.369-2.243,5.506-3.478,8.836-3.478c2.696,0,5.295,0.8,7.517,2.316c3.351,2.285,5.458,5.918,5.781,9.964     c0.184,2.3-0.083,6.701-3.934,10.347c-0.003,0.001-0.005,0.004-0.008,0.007c-19.515,18.504-45.503,33.802-77.242,45.47     c-41.119,15.112-89.361,23.099-139.515,23.099c-50.16,0-98.407-7.987-139.524-23.098c-31.75-11.677-57.74-26.976-77.254-45.478     c-3.85-3.645-4.116-8.047-3.934-10.347c0.324-4.047,2.431-7.678,5.777-9.961c2.279-1.552,4.91-2.314,7.514-2.314     c3.228,0,6.416,1.172,8.832,3.464c22.228,21.096,55.612,37.932,96.512,48.684c3.031,0.805,6.223,1.598,9.49,2.359     c14.554,3.388,29.801,5.973,45.303,7.678c30.705,3.408,63.453,3.422,94.08,0.044c15.684-1.695,31.089-4.294,45.764-7.719     c2.79-0.646,5.797-1.392,9.501-2.354C390.152,423.698,423.525,406.861,445.751,385.783z M245.858,318.232     c1.03,0,2.223,0.001,3.25,0.001c31.671,0,30.681,29.595,30.681,32.019v69.106c-21.148,1.687-43.619,1.675-64.767-0.03v-69.076     C215.022,348.908,214.139,318.232,245.858,318.232z M484.548,142.29c-0.001,0.001-0.004,0.003-0.005,0.004l-13.593,11.835     c-0.975,0.849-2.35,0.991-3.408,0.366c-19.188-11.38-37.842-13.043-52.525-4.679c-21.83,12.433-32.442,44.519-32.442,98.09     c0,46.745-20.236,97.133-39.805,145.863c-2.214,5.512-4.481,11.16-6.696,16.748c-0.794,0.192-1.347,0.377-2.095,0.55     c-9.059,2.115-18.502,3.883-27.755,5.3v-66.118c0-11.235-4.848-58.257-53.474-58.257c-0.79,0-1.743-0.128-2.552-0.164     c-1.935-0.099-4.019-0.1-5.96,0.005c-0.894,0.049-1.597,0.197-2.497,0.197c-48.723,0-53.155,46.652-53.155,58.218v66.052     c-9.252-1.41-18.842-3.158-27.772-5.237c-0.747-0.173-1.582-0.354-2.32-0.531c-15.971-42.011-36.164-102.439-46.513-162.914     c-0.107-0.605-0.242-1.211-0.329-1.749c-3.951-25.352,15.556-47.802,35.486-57.941c7.508-3.837,16.333-6.171,22.942-6.914v2.581     c0,41.908,34.311,76.368,76.219,76.368h10.655c41.908,0,77.026-34.461,77.026-76.368v-16.082c0-0.233-0.535-0.449-0.547-0.673     c0.403-2.029,0.552-4.563,1.057-7.731c3.788-23.797,12.529-79.527,49.528-106.068c15.177-10.887,33.915-15.674,55.949-14.295     l-4.646,17.981c-0.94,3.663-0.282,7.551,1.835,10.684l47.908,70.922C485.917,139.599,485.69,141.298,484.548,142.29z" data-original="#000000" class="active-path" data-old_color="#000000" fill="#E81667"/>
			<circle cx="415.895" cy="95.246" r="9.913" data-original="#000000" class="active-path" data-old_color="#000000" fill="#E81667"/>
		</g>
	</g>
</g></g> </svg>
