<svg xmlns="http://www.w3.org/2000/svg" xmlns:xlink="http://www.w3.org/1999/xlink" width="360" height="156" viewBox="0 0 360 156"><defs><style>.a{fill:url(#a);}.b{fill:#ffd500;}.c{fill:#fff162;}.d,.r,.s{fill:#fff;}.e{fill:#efefef;}.e,.g,.h,.k,.l,.n,.o{fill-rule:evenodd;}.f{fill:#ab140d;}.g{fill:#9a9b9b;}.h{fill:#ccc;}.i,.n,.p,.q{fill:#d91012;}.j{fill:#8e1306;}.k{fill:#ededed;}.l{fill:#dedede;}.m{fill:none;stroke:#2b2a29;stroke-miterlimit:22.926;stroke-width:0.617px;}.o{fill:#ad140e;}.p{font-size:16px;}.p,.q{font-family:SegoeUI-Bold, Segoe UI;font-weight:700;}.q{font-size:32px;}.r{font-size:14px;font-family:Oswald-SemiBold, Oswald;font-weight:600;}.s{font-size:9px;font-family:Poppins-Regular, Poppins;}.t{fill:#e81667;}</style><radialGradient id="a" cx="0.5" cy="0.5" r="0.5" gradientUnits="objectBoundingBox"><stop offset="0" stop-color="#6a50bf"/><stop offset="1" stop-color="#462d98"/></radialGradient></defs><g transform="translate(0 -110)"><rect class="a" width="360" height="156" transform="translate(0 110)"/><g transform="translate(242.914 82)"><g transform="translate(-69 28)"><path class="b" d="M0,0,90.066,156,180.135,0Z"/><g transform="translate(22.049)"><path class="c" d="M310.913,0,249.99,156,318.039,0Z" transform="translate(-181.973)"/><path class="c" d="M277.814,0,249.99,156,284.937,0Z" transform="translate(-181.973)"/><path class="c" d="M68.323,0l60.923,156L61.2,0Z" transform="translate(-61.2)"/><path class="c" d="M160.2,0l27.821,156L153.07,0Z" transform="translate(-119.971)"/><path class="c" d="M245.659,156,250.343,0H243.22l2.439,156" transform="translate(-177.642)"/></g><g transform="translate(14.361 19.278)"><g transform="translate(0 37.681)"><path class="b" d="M403.994,235.59l.641,1.3,1.427.205-1.034,1.009.245,1.419-1.279-.67-1.275.67.245-1.419-1.034-1.009,1.427-.205Z" transform="translate(-271.484 -207.672)"/><path class="b" d="M429.577,390.76l.335.677.742.108-.537.522.126.742-.667-.349-.663.349.126-.742-.54-.522.746-.108Z" transform="translate(-288.482 -306.938)"/><path class="b" d="M433.055,162.69l1.881,3.812,4.208.612-3.044,2.965.721,4.19-3.765-1.978-3.761,1.978.717-4.19-3.041-2.965,4.2-.612Z" transform="translate(-287.503 -161.036)"/><path class="b" d="M396.343,288.33l1.971,3.992,4.406.641-3.188,3.106.753,4.388-3.941-2.072-3.938,2.072.753-4.388-3.188-3.106,4.406-.641Z" transform="translate(-263.833 -241.411)"/><path class="b" d="M74.811,311.29l2.025,4.107,4.532.659-3.279,3.2.775,4.514-4.053-2.133-4.053,2.133.771-4.514-3.279-3.2,4.532-.659Z" transform="translate(-58.022 -256.099)"/><path class="b" d="M45.268,250.46l1.668,3.383,3.736.544-2.7,2.634.638,3.722-3.34-1.758-3.343,1.758.638-3.722-2.7-2.634,3.736-.544Z" transform="translate(-39.86 -217.185)"/><path class="b" d="M453.915,343.93l1.023,2.075,2.288.331-1.657,1.614.393,2.281-2.046-1.077-2.046,1.077.389-2.281-1.657-1.614,2.291-.331Z" transform="translate(-302.62 -276.98)"/><path class="b" d="M96.318,232.01l.339.681.753.112-.544.53.126.749-.674-.353-.67.353.126-.749-.544-.53.753-.112Z" transform="translate(-75.281 -205.382)"/><path class="b" d="M51.991,158.1l1.146,2.324,2.562.371L53.846,162.6l.436,2.551-2.291-1.2-2.291,1.2.436-2.551-1.855-1.809,2.565-.371Z" transform="translate(-45.246 -158.1)"/><g transform="translate(0.378 34.075)"><path class="d" d="M445.317,252.68l1.088,2.2,2.435.353-1.762,1.719.414,2.428-2.176-1.146-2.18,1.146.418-2.428-1.765-1.719,2.435-.353Z" transform="translate(-297.362 -252.68)"/><path class="d" d="M399.428,353.17l.789,1.6,1.765.256-1.279,1.247.3,1.758-1.578-.832-1.582.832.3-1.758-1.279-1.247,1.765-.256Z" transform="translate(-268.626 -316.966)"/><path class="d" d="M92,374.78l.512,1.034,1.142.166-.829.8.2,1.138L92,377.385l-1.02.537.195-1.138-.829-.8,1.142-.166Z" transform="translate(-72.538 -330.79)"/><path class="d" d="M42.066,314.53l.357.721.8.115-.576.562.137.8-.713-.375-.713.375.133-.8-.576-.562.8-.115Z" transform="translate(-40.91 -292.247)"/></g></g><g transform="translate(38.708)"><g transform="translate(2.345 87.914)"><path class="e" d="M188.8,286.144H165.144l-10.83,5.577a.917.917,0,0,0-.5.829V333.97a.933.933,0,0,0,.933.929H222.85a.935.935,0,0,0,.933-.929V292.546a.917.917,0,0,0-.5-.829l-10.83-5.577H188.8Z" transform="translate(-153.81 -286.14)"/><rect class="f" width="14.674" height="1.265" transform="translate(27.651 5.393)"/><path class="g" d="M193.115,286.62v5.22H160.56l9.659-5.22Z" transform="translate(-158.128 -286.447)"/><path class="g" d="M250.92,286.62v5.22h32.555l-9.659-5.22Z" transform="translate(-215.934 -286.447)"/><path class="h" d="M187.37,286.62h45.791v5.22H187.37Z" transform="translate(-175.279 -286.447)"/><rect class="i" width="14.674" height="42.722" transform="translate(27.651 6.038)"/></g><g transform="translate(0)"><g transform="translate(19.678)"><path class="j" d="M207.615,63.354c-3.61,2.039,2.245,8.557,5.624,9.951h-3.527S198.9,68.03,202.744,62.8C204.049,62.183,207.615,63.354,207.615,63.354Z" transform="translate(-201.919 -59.337)"/><path class="i" d="M218.544,68c.739-4.936-3.905-13.863-11.086-14.49-4.017.173-5.238,4.889-5.238,4.889s9.428-2.443,14.577,9.338A2.341,2.341,0,0,0,218.544,68Z" transform="translate(-202.112 -53.51)"/></g><g transform="translate(36.931)"><path class="j" d="M269.834,63.354c3.61,2.039-2.245,8.557-5.624,9.951h3.527S278.545,68.03,274.7,62.8C273.4,62.183,269.834,63.354,269.834,63.354Z" transform="translate(-259.021 -59.337)"/><path class="i" d="M249.883,68c-.739-4.936,3.905-13.863,11.086-14.49,4.017.173,5.238,4.889,5.238,4.889s-9.428-2.443-14.577,9.338A2.341,2.341,0,0,1,249.883,68Z" transform="translate(-249.806 -53.51)"/></g><path class="k" d="M184.632,108.367H158.638l-10.83-5.577a.92.92,0,0,1-.508-.829V90.133a.933.933,0,0,1,.933-.933h72.79a.936.936,0,0,1,.933.933v11.828a.917.917,0,0,1-.5.829l-10.83,5.577h-25.99Z" transform="translate(-147.3 -76.342)"/><path class="l" d="M221.96,124.62a.917.917,0,0,1-.5.829l-10.83,5.577H158.638l-10.83-5.577a.92.92,0,0,1-.508-.829Z" transform="translate(-147.3 -99.001)"/><path class="k" d="M250.92,89.21" transform="translate(-213.588 -76.348)"/><path class="g" d="M188.956,132.65v-5.22h-34.9l9.659,5.22Z" transform="translate(-151.625 -100.798)"/><path class="g" d="M250.92,132.65v-5.22h34.9l-9.663,5.22Z" transform="translate(-213.588 -100.798)"/><line class="m" x1="25.003" transform="translate(12.329 31.059)"/><path class="h" d="M231.345,132.65H180.87v-5.22h50.475Z" transform="translate(-168.775 -100.798)"/><path class="n" d="M230.56,89.21h14.674v13.784H230.56Z" transform="translate(-200.563 -76.348)"/><path class="o" d="M230.56,124.63h14.674v1.023H230.56Z" transform="translate(-200.563 -99.007)"/></g></g><g transform="translate(0.133 20.9)"><g transform="translate(40.976 17.793)"><text class="p" transform="translate(32.023 13.059) rotate(-0.1)"><tspan x="-48.645" y="0">BOXING DAY</tspan></text><text class="q" transform="translate(32.175 40.232) rotate(-0.1)"><tspan x="-36.914" y="0">SALE</tspan></text></g><path class="d" d="M412.64,128.9l15.546-13.442,3.563,3.574Z" transform="translate(-278.469 -114.041)"/><path class="d" d="M402.7,211.962l18.464,4.871-2.118-5.123Z" transform="translate(-272.11 -175.614)"/><path class="d" d="M392.42,261.15l13.125,6.215-.5-3.041Z" transform="translate(-265.534 -207.242)"/><path class="d" d="M365.88,296.41l1.452,16.119,4.55-2.7Z" transform="translate(-248.556 -229.798)"/><path class="d" d="M61.407,126.464,47.3,111.52l-3.905,3.2Z" transform="translate(-42.252 -111.52)"/><path class="d" d="M59.069,210.893,40.23,214.01l2.59-4.9Z" transform="translate(-40.23 -173.951)"/><path class="d" d="M87.941,275.54l-12.311,7.7.141-3.077Z" transform="translate(-62.876 -216.447)"/><path class="d" d="M123.682,296.41l-1.452,16.119-4.55-2.7Z" transform="translate(-89.777 -229.798)"/></g></g></g></g><g transform="translate(0 8)"><text class="r" transform="translate(10 168)"><tspan x="0" y="0">Watch movies. Get rewarded</tspan></text><text class="s" transform="translate(10 187)"><tspan x="0" y="0">Win FS cash upto </tspan><tspan class="b" y="0">$1000*</tspan></text></g><g transform="translate(-127 1)"><rect class="d" width="15" height="4" rx="2" transform="translate(147 248)"/><rect class="d" width="15" height="4" rx="2" transform="translate(176 248)"/><rect class="t" width="6" height="6" rx="3" transform="translate(166 247)"/></g></g></svg>