<svg xmlns="http://www.w3.org/2000/svg" width="15.848" height="16.194" viewBox="0 0 15.848 16.194"><defs><style>.a{fill:#333;}</style></defs><path class="a" d="M3.238,282.3l2.013-2.012-2.683-2.683L.556,279.618a1.888,1.888,0,0,0,1.2,3.225v1.228H.81v.949H3.655v-.949H2.707v-1.4A1.891,1.891,0,0,0,3.238,282.3Zm0,0" transform="translate(0 -268.825)"/><path class="a" d="M339.734,282.3a1.9,1.9,0,0,0,0-2.683l-2.012-2.012-2.683,2.683,2.013,2.012a1.891,1.891,0,0,0,.532.368v1.4h-.949v.948h2.846v-.948h-.949v-1.228A1.875,1.875,0,0,0,339.734,282.3Zm0,0" transform="translate(-324.442 -268.829)"/><path class="a" d="M119.842,10.294l8.608-6.148L124.3,0l-6.148,8.608Zm0,0" transform="translate(-114.419)"/><path class="a" d="M276.328,233.617l1.685,1.2,1.686-1.686-.91-1.275Zm0,0" transform="translate(-267.588 -224.526)"/><path class="a" d="M62.958,1.931,61.579,0,57.434,4.146,60.044,6.01Zm0,0" transform="translate(-55.617)"/></svg>